<svg xmlns:x="http://ns.adobe.com/Extensibility/1.0/" xmlns:i="http://ns.adobe.com/AdobeIllustrator/10.0/" xmlns:graph="http://ns.adobe.com/Graphs/1.0/" xmlns="http://www.w3.org/2000/svg" xmlns:xlink="http://www.w3.org/1999/xlink" version="1.1" id="Livello_1" x="0px" y="0px" viewBox="0 0 2354.8 264.1" enable-background="new 0 0 2354.8 264.1" xml:space="preserve">
<metadata fill="#000000">
	<sfw xmlns="http://ns.adobe.com/SaveForWeb/1.0/" fill="#000000">
		<slices fill="#000000"/>
		<sliceSourceBounds bottomLeftOrigin="true" height="264.1" width="2354.7" x="0" y="0" fill="#000000"/>
	</sfw>
</metadata>
<g>
	<path fill="#EEEEEE" d="M187.6,55.6h-69.5c-7.7,0-13.9-6.2-13.9-13.9s6.2-13.9,13.9-13.9h69.5c7.7,0,13.9,6.2,13.9,13.9   S195.3,55.6,187.6,55.6z M0,0v243.2C0,254.7,9.4,264,20.8,264h264.1c11.5,0,20.8-9.4,20.8-20.8V0H0z"/>
	<path fill="#DB4437" d="M152.9,111.2c-46.6,0-87.6,24.1-111.1,60.6v92.3h64.4l46.7-80.9h117.6C248.6,140.4,204.2,111.2,152.9,111.2   z"/>
	<path fill="#0F9D58" d="M41.8,171.8c-13.3,20.6-20.9,45.1-20.9,71.4c0,7.1,0.6,14.1,1.6,20.8h73.1L41.8,171.8z"/>
	<path fill="#FFCD40" d="M284.9,243.2c0-21.6-5.2-42-14.4-60H152.9l46.7,80.9h83.7C284.3,257.3,284.9,250.3,284.9,243.2z"/>
	<g>
		<path fill="#F1F1F1" d="M152.9,183.2c-33.1,0-60,26.9-60,60c0,7.3,1.3,14.4,3.7,20.8h13c-3-6.3-4.8-13.4-4.8-20.8    c0-26.5,21.5-48,48-48s48,21.5,48,48c0,7.5-1.7,14.5-4.8,20.8h13c2.4-6.5,3.7-13.5,3.7-20.8C212.9,210.1,186,183.2,152.9,183.2z"/>
		<path fill="#4285F4" d="M152.9,195.2c-26.5,0-48,21.5-48,48c0,7.5,1.7,14.5,4.8,20.8h86.5c3-6.3,4.8-13.4,4.8-20.8    C200.9,216.7,179.4,195.2,152.9,195.2z"/>
	</g>
	<path opacity="0.05" fill="#212121" enable-background="new    " d="M0,0v132h305.7V0H0z M187.6,55.6h-69.5   c-7.7,0-13.9-6.2-13.9-13.9s6.2-13.9,13.9-13.9h69.5c7.7,0,13.9,6.2,13.9,13.9S195.3,55.6,187.6,55.6z"/>
	<g>
		<rect y="130.3" opacity="0.02" fill="#212121" enable-background="new    " width="305.7" height="1.7"/>
		<rect y="132" opacity="0.05" fill="#FFFFFF" enable-background="new    " width="305.7" height="1.7"/>
		<path opacity="0.02" fill="#212121" enable-background="new    " d="M0,0v1.7h305.7V0H0z M187.6,55.6h-69.5    c-7.4,0-13.4-5.8-13.8-13c0,0.3-0.1,0.6-0.1,0.9c0,7.7,6.2,13.9,13.9,13.9h69.5c7.7,0,13.9-6.2,13.9-13.9c0-0.3,0-0.6-0.1-0.9    C201,49.8,195,55.6,187.6,55.6z"/>
		<path opacity="0.1" fill="#231F20" enable-background="new    " d="M284.9,262.3H20.8C9.4,262.3,0,252.9,0,241.5v1.7    C0,254.7,9.4,264,20.8,264h264.1c11.5,0,20.8-9.4,20.8-20.8v-1.7C305.7,252.9,296.4,262.3,284.9,262.3z M118.1,27.8h69.5    c7.4,0,13.4,5.8,13.8,13c0-0.3,0.1-0.6,0.1-0.9c0-7.7-6.2-13.9-13.9-13.9h-69.5c-7.7,0-13.9,6.2-13.9,13.9c0,0.3,0,0.6,0.1,0.9    C104.7,33.6,110.7,27.8,118.1,27.8z"/>
	</g>
</g>
<g>
	<path fill="#474747" d="M523.3,200.5c-9-5.4-16.1-12.8-21.1-22.3c-5-9.4-7.6-20-7.6-31.8s2.5-22.4,7.6-31.9   c5-9.5,12.1-16.9,21.1-22.2c9-5.4,19.2-8,30.5-8c12.7,0,23.4,3,32,8.8c8.6,5.9,14.8,13.7,18.5,23.5l-17.7,7.3   c-2.9-7.2-7.2-12.7-13-16.4c-5.7-3.7-12.7-5.6-20.8-5.6c-6.9,0-13.3,1.9-19.3,5.6s-10.7,9-14.3,15.7c-3.6,6.7-5.4,14.4-5.4,23.2   s1.8,16.4,5.4,23.2c3.6,6.7,8.4,12,14.3,15.7c6,3.7,12.4,5.6,19.3,5.6c8.3,0,15.4-1.9,21.3-5.7c6-3.8,10.4-9.3,13.3-16.3l17.4,7.3   c-4,9.6-10.4,17.4-19.1,23.4c-8.8,6-19.5,8.9-32,8.9C542.5,208.7,532.4,205.9,523.3,200.5z"/>
	<path fill="#474747" d="M626.1,40.8h19.5v48.4l-0.9,16.1h0.9c3.2-6,8.3-10.9,15.3-14.9s14.6-6,22.8-6c14.2,0,25.1,4.2,32.6,12.5   s11.2,19.4,11.2,33.1v75H708v-72c0-10.5-2.7-18.3-8-23.4c-5.4-5-12.3-7.6-20.9-7.6c-6.1,0-11.7,1.8-16.9,5.5   c-5.1,3.7-9.2,8.4-12.2,14.2c-3,5.8-4.5,11.8-4.5,18.1V205H626V40.8H626.1z"/>
	<path fill="#474747" d="M755.4,88H774v18.8h0.9c2.3-6.4,6.7-11.7,13.3-15.9c6.6-4.2,13.4-6.3,20.6-6.3c5.3,0,9.9,0.8,13.8,2.3V108   c-4.9-2.4-10.4-3.7-16.5-3.7c-5.7,0-10.9,1.6-15.6,4.8c-4.7,3.2-8.5,7.5-11.3,13c-2.8,5.4-4.2,11.3-4.2,17.5V205h-19.5V88H755.4z"/>
	<path fill="#474747" d="M857.4,200.4c-9.2-5.5-16.3-13-21.4-22.5c-5.1-9.5-7.7-20-7.7-31.4c0-11.5,2.6-21.9,7.7-31.4   c5.1-9.5,12.3-17,21.4-22.5c9.2-5.5,19.5-8.3,31-8.3s21.8,2.8,31,8.3s16.3,13,21.4,22.5c5.1,9.5,7.7,20,7.7,31.4   c0,11.5-2.6,21.9-7.7,31.4c-5.1,9.5-12.3,17-21.4,22.5c-9.2,5.5-19.5,8.3-31,8.3S866.6,205.9,857.4,200.4z M908.5,185.6   c6.2-3.6,11.2-8.7,14.9-15.5c3.7-6.7,5.6-14.6,5.6-23.6s-1.9-16.9-5.6-23.6c-3.8-6.7-8.7-11.9-14.9-15.5s-12.9-5.4-20.1-5.4   c-7.2,0-13.9,1.8-20.2,5.4s-11.3,8.8-15,15.5c-3.8,6.7-5.6,14.6-5.6,23.6s1.9,16.9,5.6,23.6c3.7,6.7,8.7,11.9,15,15.5   s13,5.4,20.2,5.4C895.6,191,902.3,189.2,908.5,185.6z"/>
	<path fill="#474747" d="M969.1,88h18.6v17.2h0.9c3.4-6,8.4-10.9,15.1-14.9c6.7-4,13.8-6,21.3-6c8.6,0,16,2.1,22.4,6.2   c6.3,4.1,10.9,9.6,13.6,16.5c4.1-6.9,9.6-12.4,16.4-16.5s14.7-6.2,23.7-6.2c13.5,0,23.6,4.1,30.4,12.3s10.2,19.3,10.2,33.4v75   h-19.3v-72c0-10.9-2.2-18.7-6.7-23.6s-11-7.3-19.7-7.3c-5.8,0-11.1,1.7-15.8,5c-4.7,3.4-8.4,7.9-11.1,13.5c-2.7,5.7-4,11.8-4,18.3   v66h-19.5v-71.8c0-11-2.2-19-6.6-23.8c-4.4-4.9-10.9-7.3-19.5-7.3c-5.8,0-11.1,1.7-15.8,5.2c-4.7,3.4-8.4,8-11.1,13.8   c-2.7,5.7-4,11.9-4,18.5V205h-19.5L969.1,88L969.1,88z"/>
	<path fill="#474747" d="M1191.8,200.6c-8.9-5.4-15.8-12.7-20.8-22.1c-5-9.4-7.5-20-7.5-31.8c0-11.3,2.3-21.7,7-31.2   s11.3-17,19.8-22.7c8.6-5.7,18.5-8.5,29.8-8.5c11.5,0,21.4,2.6,29.8,7.7s14.9,12.2,19.4,21.2s6.8,19.3,6.8,31c0,2.3-0.2,4.3-0.7,6   H1183c0.5,8.9,2.6,16.4,6.4,22.5s8.7,10.7,14.6,13.8s12,4.6,18.5,4.6c15,0,26.5-7,34.6-21.1l16.5,8c-5,9.5-11.9,17-20.5,22.5   s-19.1,8.3-31.3,8.3C1210.6,208.7,1200.6,206,1191.8,200.6z M1255.5,134.1c-0.3-4.9-1.7-9.8-4.1-14.7c-2.4-4.9-6.3-9-11.6-12.4   c-5.3-3.4-11.9-5-19.8-5c-9.2,0-16.9,2.9-23.3,8.8c-6.3,5.9-10.5,13.6-12.5,23.3H1255.5z"/>
	<path fill="#474747" d="M1339.2,88h20l28,92.4h0.2l29.4-92.4h20.2l29.6,92.2h0.2l27.7-92.2h19.7l-37.9,117h-19.7l-30.3-93.3   l-30,93.3h-19.5L1339.2,88z"/>
	<path fill="#474747" d="M1549.9,200.6c-8.9-5.4-15.8-12.7-20.8-22.1c-5-9.4-7.5-20-7.5-31.8c0-11.3,2.3-21.7,7-31.2   s11.3-17,19.8-22.7c8.6-5.7,18.5-8.5,29.8-8.5c11.5,0,21.4,2.6,29.8,7.7s14.9,12.2,19.4,21.2s6.8,19.3,6.8,31c0,2.3-0.2,4.3-0.7,6   h-92.4c0.5,8.9,2.6,16.4,6.4,22.5s8.7,10.7,14.6,13.8s12,4.6,18.5,4.6c15,0,26.5-7,34.6-21.1l16.5,8c-5,9.5-11.9,17-20.5,22.5   s-19.1,8.3-31.3,8.3C1568.8,208.7,1558.8,206,1549.9,200.6z M1613.7,134.1c-0.3-4.9-1.7-9.8-4.1-14.7c-2.4-4.9-6.3-9-11.6-12.4   c-5.3-3.4-11.9-5-19.8-5c-9.2,0-16.9,2.9-23.3,8.8c-6.3,5.9-10.5,13.6-12.5,23.3H1613.7z"/>
	<path fill="#474747" d="M1692.5,202.6c-7.1-4-12.4-9-15.9-14.8h-0.9V205H1657V40.8h19.5v48.4l-0.9,16.3h0.9c3.5-6,8.8-11,15.9-15   s15.1-6.1,24-6.1c10.4,0,19.9,2.7,28.4,8c8.6,5.4,15.3,12.8,20.2,22.2c4.9,9.5,7.3,20.1,7.3,31.9c0,11.9-2.4,22.6-7.3,32   s-11.6,16.8-20.2,22.1c-8.6,5.4-18,8-28.4,8C1707.6,208.7,1699.6,206.6,1692.5,202.6z M1733.2,185.5c6-3.7,10.7-8.9,14.3-15.7   c3.6-6.8,5.4-14.6,5.4-23.3s-1.8-16.5-5.4-23.3s-8.4-12-14.3-15.7c-6-3.7-12.3-5.5-19-5.5s-13.1,1.8-19,5.5   c-6,3.7-10.7,8.9-14.2,15.6c-3.5,6.7-5.3,14.5-5.3,23.4s1.8,16.7,5.3,23.4s8.3,11.9,14.2,15.6c6,3.7,12.3,5.5,19,5.5   S1727.2,189.2,1733.2,185.5z"/>
	<path fill="#474747" d="M1857.7,199.8c-8.4-5.9-14.4-13.4-17.9-22.6l17.4-7.8c2.9,7,7.2,12.5,13,16.3c5.7,3.8,12,5.7,18.9,5.7   c7.3,0,13.6-1.5,18.8-4.5c5.2-3,7.8-7.2,7.8-12.7c0-4.9-2.1-8.8-6.2-11.8s-10.6-5.5-19.5-7.7l-14.2-3.7c-9.3-2.3-17-6.2-22.9-11.7   c-6-5.5-8.9-12.6-8.9-21.3c0-6.7,2-12.7,6.1-17.8c4.1-5.1,9.4-9.1,16.2-11.8c6.7-2.8,14-4.1,21.8-4.1c10.2,0,19.4,2.2,27.4,6.7   c8,4.4,13.7,10.6,17.1,18.6l-17,7.8c-5.2-10.4-14.4-15.6-27.7-15.6c-6.4,0-12,1.5-16.9,4.5c-4.8,3-7.2,6.8-7.2,11.3   c0,4.3,1.7,7.8,5,10.4c3.4,2.7,8.4,4.9,15.1,6.5l17,4.4c11.5,2.9,20.1,7.2,25.9,13c5.8,5.7,8.7,12.7,8.7,21   c0,7.2-2.1,13.5-6.2,18.9s-9.7,9.6-16.7,12.5s-14.8,4.4-23.4,4.4C1876.5,208.7,1866.1,205.7,1857.7,199.8z"/>
	<path fill="#474747" d="M1987.6,204.5c-4.1-1.5-7.5-3.6-10.2-6.2c-3.1-2.9-5.4-6.3-6.9-10.1s-2.3-8.5-2.3-14v-68.6h-20.4V88h20.4   V55h19.5v33h28.4v17.7h-28.4v63.8c0,6.4,1.2,11.2,3.7,14.2c2.9,3.4,7.1,5,12.6,5c4.4,0,8.7-1.3,12.8-3.9v19c-2.3,1.1-4.6,1.8-7,2.3   s-5.4,0.7-9.1,0.7C1996,206.8,1991.6,206.1,1987.6,204.5z"/>
	<path fill="#474747" d="M2057.9,200.4c-9.2-5.5-16.3-13-21.4-22.5s-7.7-20-7.7-31.4c0-11.5,2.6-21.9,7.7-31.4s12.3-17,21.4-22.5   c9.2-5.5,19.5-8.3,31-8.3s21.8,2.8,31,8.3s16.3,13,21.4,22.5c5.1,9.5,7.7,20,7.7,31.4c0,11.5-2.6,21.9-7.7,31.4   c-5.1,9.5-12.3,17-21.4,22.5c-9.2,5.5-19.5,8.3-31,8.3C2077.3,208.7,2067,205.9,2057.9,200.4z M2108.9,185.6   c6.2-3.6,11.2-8.7,14.9-15.5c3.7-6.7,5.6-14.6,5.6-23.6s-1.9-16.9-5.6-23.6c-3.8-6.7-8.7-11.9-14.9-15.5s-12.9-5.4-20.1-5.4   c-7.2,0-13.9,1.8-20.2,5.4s-11.3,8.8-15,15.5c-3.8,6.7-5.6,14.6-5.6,23.6s1.9,16.9,5.6,23.6c3.7,6.7,8.7,11.9,15,15.5   s13,5.4,20.2,5.4C2096,191,2102.7,189.2,2108.9,185.6z"/>
	<path fill="#474747" d="M2169.3,88h18.6v18.8h0.9c2.3-6.4,6.7-11.7,13.3-15.9c6.6-4.2,13.4-6.3,20.6-6.3c5.3,0,9.9,0.8,13.8,2.3   V108c-4.9-2.4-10.4-3.7-16.5-3.7c-5.7,0-10.9,1.6-15.6,4.8c-4.7,3.2-8.5,7.5-11.3,13c-2.8,5.4-4.2,11.3-4.2,17.5V205h-19.5V88   H2169.3z"/>
	<path fill="#474747" d="M2270.4,200.6c-8.9-5.4-15.8-12.7-20.8-22.1c-5-9.4-7.5-20-7.5-31.8c0-11.3,2.3-21.7,7-31.2   s11.3-17,19.8-22.7c8.6-5.7,18.5-8.5,29.8-8.5c11.5,0,21.4,2.6,29.8,7.7c8.4,5.1,14.9,12.2,19.4,21.2s6.8,19.3,6.8,31   c0,2.3-0.2,4.3-0.7,6h-92.4c0.5,8.9,2.6,16.4,6.4,22.5c3.8,6.1,8.7,10.7,14.6,13.8c5.9,3.1,12,4.6,18.5,4.6c15,0,26.5-7,34.6-21.1   l16.5,8c-5,9.5-11.9,17-20.5,22.5s-19.1,8.3-31.3,8.3C2289.3,208.7,2279.3,206,2270.4,200.6z M2334.2,134.1   c-0.3-4.9-1.7-9.8-4.1-14.7c-2.4-4.9-6.3-9-11.6-12.4s-11.9-5-19.8-5c-9.2,0-16.9,2.9-23.3,8.8c-6.3,5.9-10.5,13.6-12.5,23.3   H2334.2z"/>
</g>
</svg>